<?xml version="1.0" encoding="utf-8"?>
<!-- Generator: Adobe Illustrator 21.0.0, SVG Export Plug-In . SVG Version: 6.00 Build 0)  -->
<svg version="1.1" id="Layer_1" xmlns="http://www.w3.org/2000/svg" xmlns:xlink="http://www.w3.org/1999/xlink" x="0px" y="0px"
	 viewBox="0 0 88 40" style="enable-background:new 0 0 88 40;" xml:space="preserve">
<style type="text/css">
	.st0{fill:#3C44FF;}
</style>
<g>
	<path class="st0" d="M3.7,33.5l3.4,1l1.5-4.8l2.4,0.7l-1.5,4.8l4.4,1.3L13,39.5L0.3,35.7L2.7,28l2.4,0.7L3.7,33.5z"/>
	<path class="st0" d="M6.3,20.9l1.9-2.4l6.7,5.5c0.2,0.2,0.5,0.3,0.8,0.4c0.3,0.1,0.5,0.1,0.8,0.1c0.3,0,0.5-0.1,0.8-0.2
		c0.3-0.1,0.5-0.3,0.7-0.5c0.2-0.2,0.3-0.5,0.4-0.8c0.1-0.3,0.1-0.5,0-0.8c0-0.3-0.1-0.5-0.3-0.8c-0.1-0.2-0.3-0.5-0.6-0.7l-6.7-5.5
		l1.9-2.4l6.7,5.5c0.5,0.4,0.9,0.9,1.2,1.5c0.3,0.6,0.5,1.1,0.5,1.8c0.1,0.6,0,1.3-0.2,1.9c-0.2,0.7-0.6,1.3-1.1,1.9
		c-0.5,0.6-1,1.1-1.6,1.4c-0.6,0.3-1.2,0.5-1.8,0.6c-0.6,0.1-1.2,0-1.8-0.2c-0.6-0.2-1.2-0.5-1.7-0.9L6.3,20.9z"/>
	<path class="st0" d="M30.4,11.8l-3.7-7.7l2.7-1.3l5.7,11.9L32.2,16l-8-5.6l3.7,7.6l-2.7,1.3L19.5,7.6l2.9-1.4L30.4,11.8z"/>
	<path class="st0" d="M48.7,3.7l-0.5,3.5l4.9,0.7l-0.4,2.5l-4.9-0.7l-0.7,4.5l-3-0.4l1.9-13l8,1.2l-0.4,2.5L48.7,3.7z"/>
	<path class="st0" d="M60.9,19.2l0.3-1.6l-4.1-2.3l-1.2,1.2l-2.8-1.6l10.5-9.2L66,7l-2.2,13.8L60.9,19.2z M63,9.6l-4,4l2.8,1.6
		L63,9.6z"/>
	<path class="st0" d="M76.3,29.3c-0.6,0.3-1.3,0.5-2,0.6c-0.7,0.1-1.4,0-2.1-0.2c-0.7-0.2-1.4-0.5-2-1c-0.7-0.5-1.3-1-1.8-1.8
		c-0.7-0.9-1.1-1.8-1.3-2.7c-0.2-0.9-0.2-1.8-0.1-2.7c0.2-0.9,0.5-1.7,1-2.4s1.1-1.4,1.9-2c0.7-0.5,1.5-0.9,2.4-1.2
		c0.9-0.2,1.7-0.3,2.6-0.2c0.9,0.1,1.7,0.4,2.5,0.9c0.8,0.5,1.5,1.1,2.2,2c0.6,0.8,1,1.6,1.3,2.5c0.2,0.8,0.3,1.6,0.3,2.3
		s-0.3,1.4-0.6,2.1c-0.3,0.7-0.8,1.2-1.3,1.8l-1.9-2.6c0.3-0.3,0.5-0.6,0.6-0.9c0.2-0.3,0.2-0.7,0.3-1.1c0-0.4,0-0.8-0.1-1.1
		c-0.1-0.4-0.3-0.8-0.6-1.1c-0.4-0.5-0.8-0.9-1.3-1.2c-0.5-0.3-1-0.4-1.5-0.5c-0.5,0-1,0-1.5,0.2c-0.5,0.2-1,0.4-1.4,0.7
		c-0.5,0.3-0.9,0.7-1.2,1.2c-0.3,0.4-0.5,0.9-0.6,1.4c-0.1,0.5-0.1,1,0,1.6c0.1,0.5,0.4,1.1,0.8,1.6c0.2,0.3,0.5,0.6,0.8,0.8
		c0.3,0.2,0.6,0.4,0.9,0.5c0.3,0.1,0.7,0.2,1,0.2c0.3,0,0.7-0.1,1-0.2L76.3,29.3z"/>
	<path class="st0" d="M83.4,33.8l-0.7-2.9l2.6-0.6l2.1,8.8l-2.6,0.6l-0.7-2.9l-10.3,2.4l-0.7-3L83.4,33.8z"/>
</g>
</svg>
