<?xml version="1.0" encoding="utf-8"?>
<!-- Generator: Adobe Illustrator 21.0.0, SVG Export Plug-In . SVG Version: 6.00 Build 0)  -->
<svg version="1.1" id="Layer_1" xmlns="http://www.w3.org/2000/svg" xmlns:xlink="http://www.w3.org/1999/xlink" x="0px" y="0px"
	 viewBox="0 0 110 44" style="enable-background:new 0 0 110 44;" xml:space="preserve">
<style type="text/css">
	.st0{fill:#F0EFFF;stroke:#453DFF;stroke-width:4;stroke-miterlimit:10;}
</style>
<g>
	<path class="st0" d="M58.4,23.2L58.4,23.2c0-0.7,0.4-1.4,1.1-1.8c3.4-1.8,5.7-5.3,5.7-9.3c-0.1-5.3-4.5-9.8-10-10
		c-6.1-0.3-11,4.4-11,10.2c0,4,2.3,7.3,5.7,9.1c0.7,0.3,1.1,1,1.1,1.8c0,0.9-0.6,1.6-1.4,1.9c-6.3,2-11.1,7.5-11.8,14.1
		c-0.1,0.9,0.6,1.8,1.6,1.8h30.7c0.9,0,1.7-0.8,1.6-1.7c-0.7-6.7-5.4-12.2-11.8-14.2C58.9,24.8,58.4,24.1,58.4,23.2"/>
</g>
</svg>
