<?xml version="1.0" encoding="utf-8"?>
<!-- Generator: Adobe Illustrator 21.0.0, SVG Export Plug-In . SVG Version: 6.00 Build 0)  -->
<svg version="1.1" id="Layer_1" xmlns="http://www.w3.org/2000/svg" xmlns:xlink="http://www.w3.org/1999/xlink" x="0px" y="0px"
	 viewBox="0 0 40.2 110.3" style="enable-background:new 0 0 40.2 110.3;" xml:space="preserve">
<style type="text/css">
	.st0{fill:#12264A;}
	.st1{fill:#F0EFFF;}
	.st2{fill:#453DFF;}
</style>
<g>
	<path class="st1" d="M20.1,82.4L20.1,82.4c-9.7,0-17.6-7.8-17.6-17.3V46.9c0-9.5,7.9-17.3,17.6-17.3s17.6,7.8,17.6,17.3v18.2
		C37.7,74.6,29.8,82.4,20.1,82.4"/>
	<g>
		<path class="st2" d="M20.1,27.1C9,27.1,0,36,0,46.9v18.2C0,76,9,84.9,20.1,84.9S40.2,76,40.2,65.1V46.9
			C40.2,36,31.2,27.1,20.1,27.1z M35.2,65.1c0,8.2-6.8,14.8-15.1,14.8S5,73.3,5,65.1V46.9c0-8.2,6.8-14.8,15.1-14.8
			s15.1,6.6,15.1,14.8V65.1z"/>
		<path class="st2" d="M20.1,39.9c-1.4,0-2.5,1.1-2.5,2.5v6c0,1.4,1.1,2.5,2.5,2.5s2.5-1.1,2.5-2.5v-6
			C22.6,41.1,21.5,39.9,20.1,39.9z"/>
		<polygon class="st2" points="20.5,7.7 25.9,13.4 29.5,10 20.5,0.3 11.5,10 15.2,13.4 		"/>
		<polygon class="st2" points="20.5,103 15.2,97.2 11.5,100.6 20.5,110.3 29.5,100.6 25.9,97.2 		"/>
	</g>
</g>
</svg>
