<?xml version="1.0" encoding="utf-8"?>
<!-- Generator: Adobe Illustrator 18.0.0, SVG Export Plug-In . SVG Version: 6.00 Build 0)  -->
<!DOCTYPE svg PUBLIC "-//W3C//DTD SVG 1.1//EN" "http://www.w3.org/Graphics/SVG/1.1/DTD/svg11.dtd">
<svg version="1.1" id="Layer_1" xmlns="http://www.w3.org/2000/svg" xmlns:xlink="http://www.w3.org/1999/xlink" x="0px" y="0px"
	 viewBox="0 0 219 65.462" enable-background="new 0 0 219 65.462" xml:space="preserve">
<polygon fill="#443CFF" points="202.398,36 198.699,39.98 207.905,48.014 0,48.014 0,54 207.273,54 198.699,61.482 202.398,65.462 
	218.999,50.731 "/>
<path display="none" fill="#443CFF" d="M37.238,15.522c0,6.327-5.129,11.456-11.456,11.456c-6.326,0-11.455-5.129-11.455-11.456
	S19.456,4.066,25.782,4.066C32.109,4.066,37.238,9.195,37.238,15.522"/>
<path display="none" fill="#443CFF" d="M51.044,14.236c-0.28-0.573-6.973-13.875-24.556-14.225l0-0.003l-0.103-0.001
	c-0.018,0-0.036-0.002-0.054-0.002c-0.085-0.001-0.171-0.001-0.256-0.002V0h-0.65v0.006c-0.241,0.002-0.483,0.004-0.72,0.011
	C7.399,0.543,0.798,13.666,0.52,14.236L0,15.303l0.429,1.106c0.224,0.577,5.65,13.996,24.838,14.231
	c0.17,0.002,0.34,0.003,0.512,0.003h0.003v-0.01h0v0.01h0.003c0.11,0,0.22,0,0.329-0.001c0.103-0.001,0.2-0.007,0.302-0.009h0.29
	l0-0.009c18.849-0.425,24.208-13.643,24.43-14.215l0.429-1.106L51.044,14.236z M26.069,25.207h-0.624
	C12.8,25.089,7.613,18.259,6.046,15.535c1.835-2.804,7.751-10.082,19.696-10.099h0.081c12.001,0.017,17.868,7.266,19.696,10.089
	C43.95,18.235,38.728,25.105,26.069,25.207z"/>
</svg>
