<?xml version="1.0" encoding="utf-8"?>
<!-- Generator: Adobe Illustrator 18.0.0, SVG Export Plug-In . SVG Version: 6.00 Build 0)  -->
<!DOCTYPE svg PUBLIC "-//W3C//DTD SVG 1.1//EN" "http://www.w3.org/Graphics/SVG/1.1/DTD/svg11.dtd">
<svg version="1.1" id="Layer_1" xmlns="http://www.w3.org/2000/svg" xmlns:xlink="http://www.w3.org/1999/xlink" x="0px" y="0px"
	 viewBox="0 0 792 612" enable-background="new 0 0 792 612" xml:space="preserve">
<g>
	<path fill="#FFFFFF" d="M368.033,612.071c-10.181,0-20.267-0.543-30.211-1.606c-40.345-4.37-173.828-28.345-197.284-153.892
		c-13.346-71.383,29.597-141.892,115.271-190.457c-18.377-17.574-56.667-60.848-56.667-116.216C199.118,70.037,269.178,0,349.065,0
		c82.674,0,149.947,67.249,149.947,149.876h-17.716c0-72.871-59.313-132.16-132.231-132.16c-70.415,0-132.207,61.769-132.207,132.16
		c0,62.974,59.171,110.571,59.785,111.043l284.824,245.069c29.644-35.644,51.589-82.745,60.517-142.483l17.527,2.622
		c-9.519,63.517-32.881,113.641-64.462,151.577l78.918,67.911l-11.527,13.417l-79.178-68.123
		C509.901,586.725,437.337,612.071,368.033,612.071z M269.934,278.54c-43.392,23.668-129.16,83.005-111.988,174.773
		c21.188,113.523,144.467,135.491,181.765,139.506c72.375,7.913,152.734-14.385,209.897-73.651L269.934,278.54z"/>
</g>
</svg>
