<?xml version="1.0" encoding="utf-8"?>
<!-- Generator: Adobe Illustrator 18.0.0, SVG Export Plug-In . SVG Version: 6.00 Build 0)  -->
<!DOCTYPE svg PUBLIC "-//W3C//DTD SVG 1.1//EN" "http://www.w3.org/Graphics/SVG/1.1/DTD/svg11.dtd">
<svg version="1.1" id="Layer_1" xmlns="http://www.w3.org/2000/svg" xmlns:xlink="http://www.w3.org/1999/xlink" x="0px" y="0px"
	 viewBox="0 0 21.842 25.909" enable-background="new 0 0 21.842 25.909" xml:space="preserve">
<g>
	<path fill="#453DFF" d="M9.737,25.912c-0.431,0-0.858-0.023-1.279-0.068c-1.708-0.185-7.359-1.2-8.352-6.515
		c-0.565-3.022,1.253-6.007,4.88-8.063c-0.778-0.744-2.399-2.576-2.399-4.92C2.586,2.965,5.552,0,8.934,0
		c3.5,0,6.348,2.847,6.348,6.345h-0.75c0-3.085-2.511-5.595-5.598-5.595c-2.981,0-5.597,2.615-5.597,5.595
		c0,2.666,2.505,4.681,2.531,4.701l12.058,10.375c1.255-1.509,2.184-3.503,2.562-6.032l0.742,0.111
		c-0.403,2.689-1.392,4.811-2.729,6.417l3.341,2.875l-0.488,0.568l-3.352-2.884C15.743,24.839,12.671,25.912,9.737,25.912z
		 M5.584,11.792c-1.837,1.002-5.468,3.514-4.741,7.399c0.897,4.806,6.116,5.736,7.695,5.906c3.064,0.335,6.466-0.609,8.886-3.118
		L5.584,11.792z"/>
</g>
</svg>
