<?xml version="1.0" encoding="utf-8"?>
<!-- Generator: Adobe Illustrator 18.0.0, SVG Export Plug-In . SVG Version: 6.00 Build 0)  -->
<!DOCTYPE svg PUBLIC "-//W3C//DTD SVG 1.1//EN" "http://www.w3.org/Graphics/SVG/1.1/DTD/svg11.dtd">
<svg version="1.1" id="Layer_1" xmlns="http://www.w3.org/2000/svg" xmlns:xlink="http://www.w3.org/1999/xlink" x="0px" y="0px"
	 viewBox="0 0 83.9 112.7" enable-background="new 0 0 83.9 112.7" xml:space="preserve">
<polygon display="none" fill="#443CFF" points="30.7,68.3 22.6,77.5 22.6,0.5 17.2,0.5 17.2,77.5 9.2,68.3 5.2,72 19.9,88.6 
	34.7,72 "/>
<path fill="#443CFF" d="M58.1,30.6C58.1,30.6,58.1,30.6,58.1,30.6L58.1,30.6L58.1,30.6L58.1,30.6L58.1,30.6
	c19.7,0,25.2-13.7,25.4-14.2l0.4-1.1l-0.5-1.1C83.1,13.7,76.2,0,58.1,0l0,0v0C40,0,33.1,13.7,32.9,14.2l-0.5,1.1l0.4,1.1
	C33,17,38.2,29.9,56.4,30.6 M58.1,25.2L58.1,25.2L58.1,25.2c-12.9,0-18.2-6.9-19.7-9.7c1.8-2.8,7.8-10.1,19.7-10.1l0,0h0
	c12,0,17.9,7.3,19.7,10.1C76.3,18.3,71,25.2,58.1,25.2z"/>
<path display="none" fill="#443CFF" d="M19.9,112.7c-11,0-19.9-9-19.9-20.1h5.4c0,8.1,6.5,14.6,14.5,14.6c8,0,14.5-6.6,14.5-14.6
	h5.4C39.9,103.7,30.9,112.7,19.9,112.7"/>
<path display="none" fill="#443CFF" d="M69.6,15.5c0,6.3-5.1,11.5-11.5,11.5c-6.3,0-11.5-5.1-11.5-11.5c0-6.3,5.1-11.5,11.5-11.5
	C64.5,4.1,69.6,9.2,69.6,15.5"/>
</svg>
