<svg id="Layer_1" data-name="Layer 1" xmlns="http://www.w3.org/2000/svg" viewBox="0 0 300 300"><defs><style>.cls-1{fill:#f0f0ff;}</style></defs><title>pivot-and-pilot-phone-icon</title><path class="cls-1" d="M150.69,203.94c-17.51,0-31.71-13.78-31.71-30.79s14.2-30.79,31.71-30.79,31.71,13.79,31.71,30.79-14.2,30.79-31.71,30.79m0-96.31C87.35,107.63,36,157.49,36,219H265.37c0-61.51-51.35-111.37-114.69-111.37"/><path class="cls-1" d="M95.36,85.74a32.11,32.11,0,0,0-23.31-8.86,21.25,21.25,0,0,1,18.61-10.8h120a21.24,21.24,0,0,1,18.61,10.8A32.1,32.1,0,0,0,206,85.74l44.6,43.79A30.17,30.17,0,0,0,250.86,86c-.15-.14-.3-.26-.45-.4C249.84,64.78,232.27,48,210.71,48h-120C69.1,48,51.53,64.78,51,85.59c-.15.14-.3.25-.45.4a30.17,30.17,0,0,0,.25,43.55Z"/></svg>