<svg id="Layer_1" data-name="Layer 1" xmlns="http://www.w3.org/2000/svg" viewBox="0 0 52.34 54"><defs><style>.cls-1{fill:#443cff;}</style></defs><title>Untitled-1</title><path class="cls-1" d="M34.37,34.3A18,18,0,0,0,23.25,24.24a2.07,2.07,0,0,1-1.45-2A2,2,0,0,1,23,20.43a10.71,10.71,0,0,0,5.94-9.77,11,11,0,0,0-22.08.21,10.73,10.73,0,0,0,5.94,9.55,2,2,0,0,1-.36,3.82A17.58,17.58,0,0,0,0,39.1a1.67,1.67,0,0,0,1.66,1.84h14.6V34.3h18.1Z"/><polygon class="cls-1" points="41.06 38.5 35.53 38.5 20.47 38.5 20.47 40.94 20.47 46.78 41.06 46.78 41.06 54 52.34 42.64 41.06 31.28 41.06 38.5"/></svg>